HIERARCHY
ROOT Root
{
  OFFSET 0.0 0.0 0.0
  CHANNELS 6 Xposition Yposition Zposition Zrotation Yrotation Xrotation
  JOINT Hips
  {
    OFFSET 0.0 100.0 0.0
    CHANNELS 6 Xposition Yposition Zposition Zrotation Yrotation Xrotation
    JOINT Spine1
    {
      OFFSET 5.003913 -0.037094 -0.013727
      CHANNELS 3 Zrotation Yrotation Xrotation
      JOINT Spine2
      {
        OFFSET 7.125363 -1e-06 0.0
        CHANNELS 3 Zrotation Yrotation Xrotation
        JOINT Chest
        {
          OFFSET 7.594027 1e-06 0.0
          CHANNELS 3 Zrotation Yrotation Xrotation
          JOINT Neck1
          {
            OFFSET 26.313086 -0.460272 -0.181672
            CHANNELS 3 Zrotation Yrotation Xrotation
            JOINT Neck2
            {
              OFFSET 8.045911 0.0 0.0
              CHANNELS 3 Zrotation Yrotation Xrotation
              JOINT Head
              {
                OFFSET 6.432774 0.0 0.0
                CHANNELS 3 Zrotation Yrotation Xrotation
                JOINT HeadEnd
                {
                  OFFSET 16.169773 0.06451 0.00362
                  CHANNELS 3 Zrotation Yrotation Xrotation
                }
                JOINT Jaw
                {
                  OFFSET 0.108741 3.12938 0.002639
                  CHANNELS 3 Zrotation Yrotation Xrotation
                }
                JOINT LeftEye
                {
                  OFFSET 4.45173 8.166359 3.206392
                  CHANNELS 3 Zrotation Yrotation Xrotation
                }
                JOINT RightEye
                {
                  OFFSET 4.436895 8.135758 -3.222429
                  CHANNELS 3 Zrotation Yrotation Xrotation
                }
              }
            }
          }
          JOINT LeftShoulder
          {
            OFFSET 23.218927 5.195579 1.621656
            CHANNELS 3 Zrotation Yrotation Xrotation
            JOINT LeftArm
            {
              OFFSET 15.902118 2e-06 -2e-06
              CHANNELS 3 Zrotation Yrotation Xrotation
              JOINT LeftForeArm
              {
                OFFSET 28.739307 0.0 -1e-06
                CHANNELS 3 Zrotation Yrotation Xrotation
                JOINT LeftHand
                {
                  OFFSET 27.093981 -4e-06 0.0
                  CHANNELS 3 Zrotation Yrotation Xrotation
                  JOINT LeftHandThumb1
                  {
                    OFFSET 2.276781 3.380274 0.83384
                    CHANNELS 3 Zrotation Yrotation Xrotation
                    JOINT LeftHandThumb2
                    {
                      OFFSET 4.705309 -1e-06 -1e-06
                      CHANNELS 3 Zrotation Yrotation Xrotation
                      JOINT LeftHandThumb3
                      {
                        OFFSET 2.798515 0.0 3e-06
                        CHANNELS 3 Zrotation Yrotation Xrotation
                        JOINT LeftHandThumbEnd
                        {
                          OFFSET 3.180793 4e-06 -4e-06
                          CHANNELS 3 Zrotation Yrotation Xrotation
                        }
                      }
                    }
                  }
                  JOINT LeftHandIndex1
                  {
                    OFFSET 3.247786 2.352677 0.137192
                    CHANNELS 3 Zrotation Yrotation Xrotation
                    JOINT LeftHandIndex2
                    {
                      OFFSET 6.367095 1e-06 0.0
                      CHANNELS 3 Zrotation Yrotation Xrotation
                      JOINT LeftHandIndex3
                      {
                        OFFSET 3.662364 0.0 0.0
                        CHANNELS 3 Zrotation Yrotation Xrotation
                        JOINT LeftHandIndex4
                        {
                          OFFSET 2.329242 4e-06 -4e-06
                          CHANNELS 3 Zrotation Yrotation Xrotation
                          JOINT LeftHandIndexEnd
                          {
                            OFFSET 2.767823 1e-06 0.0
                            CHANNELS 3 Zrotation Yrotation Xrotation
                          }
                        }
                      }
                    }
                  }
                  JOINT LeftHandMiddle1
                  {
                    OFFSET 3.163612 0.945023 -0.406112
                    CHANNELS 3 Zrotation Yrotation Xrotation
                    JOINT LeftHandMiddle2
                    {
                      OFFSET 6.276789 3e-06 0.0
                      CHANNELS 3 Zrotation Yrotation Xrotation
                      JOINT LeftHandMiddle3
                      {
                        OFFSET 4.35652 -1e-06 4e-06
                        CHANNELS 3 Zrotation Yrotation Xrotation
                        JOINT LeftHandMiddle4
                        {
                          OFFSET 2.996877 0.0 8e-06
                          CHANNELS 3 Zrotation Yrotation Xrotation
                          JOINT LeftHandMiddleEnd
                          {
                            OFFSET 2.323256 3e-06 -4e-06
                            CHANNELS 3 Zrotation Yrotation Xrotation
                          }
                        }
                      }
                    }
                  }
                  JOINT LeftHandRing1
                  {
                    OFFSET 2.882606 -0.309162 0.107445
                    CHANNELS 3 Zrotation Yrotation Xrotation
                    JOINT LeftHandRing2
                    {
                      OFFSET 6.033198 0.0 4e-06
                      CHANNELS 3 Zrotation Yrotation Xrotation
                      JOINT LeftHandRing3
                      {
                        OFFSET 4.350578 3e-06 0.0
                        CHANNELS 3 Zrotation Yrotation Xrotation
                        JOINT LeftHandRing4
                        {
                          OFFSET 2.651321 2e-06 -7e-06
                          CHANNELS 3 Zrotation Yrotation Xrotation
                          JOINT LeftHandRingEnd
                          {
                            OFFSET 1.937663 1e-06 -4e-06
                            CHANNELS 3 Zrotation Yrotation Xrotation
                          }
                        }
                      }
                    }
                  }
                  JOINT LeftHandPinky1
                  {
                    OFFSET 2.865315 -1.525436 0.575687
                    CHANNELS 3 Zrotation Yrotation Xrotation
                    JOINT LeftHandPinky2
                    {
                      OFFSET 5.54936 1e-06 -8e-06
                      CHANNELS 3 Zrotation Yrotation Xrotation
                      JOINT LeftHandPinky3
                      {
                        OFFSET 3.070974 0.0 -4e-06
                        CHANNELS 3 Zrotation Yrotation Xrotation
                        JOINT LeftHandPinky4
                        {
                          OFFSET 1.549672 1e-06 0.0
                          CHANNELS 3 Zrotation Yrotation Xrotation
                          JOINT LeftHandPinkyEnd
                          {
                            OFFSET 1.952123 0.0 0.0
                            CHANNELS 3 Zrotation Yrotation Xrotation
                          }
                        }
                      }
                    }
                  }
                }
              }
            }
          }
          JOINT RightShoulder
          {
            OFFSET 23.161716 5.296122 -1.380114
            CHANNELS 3 Zrotation Yrotation Xrotation
            JOINT RightArm
            {
              OFFSET -16.027195 -2e-06 1.1e-05
              CHANNELS 3 Zrotation Yrotation Xrotation
              JOINT RightForeArm
              {
                OFFSET -28.736639 4e-06 2e-06
                CHANNELS 3 Zrotation Yrotation Xrotation
                JOINT RightHand
                {
                  OFFSET -27.133619 6e-06 0.0
                  CHANNELS 3 Zrotation Yrotation Xrotation
                  JOINT RightHandThumb1
                  {
                    OFFSET -2.274328 -3.351035 -0.83067
                    CHANNELS 3 Zrotation Yrotation Xrotation
                    JOINT RightHandThumb2
                    {
                      OFFSET -4.703594 -3e-06 2e-06
                      CHANNELS 3 Zrotation Yrotation Xrotation
                      JOINT RightHandThumb3
                      {
                        OFFSET -2.794935 -4e-06 -3e-06
                        CHANNELS 3 Zrotation Yrotation Xrotation
                        JOINT RightHandThumbEnd
                        {
                          OFFSET -3.183852 4e-06 1e-06
                          CHANNELS 3 Zrotation Yrotation Xrotation
                        }
                      }
                    }
                  }
                  JOINT RightHandIndex1
                  {
                    OFFSET -3.253496 -2.33755 -0.127667
                    CHANNELS 3 Zrotation Yrotation Xrotation
                    JOINT RightHandIndex2
                    {
                      OFFSET -6.344434 0.0 0.0
                      CHANNELS 3 Zrotation Yrotation Xrotation
                      JOINT RightHandIndex3
                      {
                        OFFSET -3.654871 0.0 -8e-06
                        CHANNELS 3 Zrotation Yrotation Xrotation
                        JOINT RightHandIndex4
                        {
                          OFFSET -2.327586 -1e-06 0.0
                          CHANNELS 3 Zrotation Yrotation Xrotation
                          JOINT RightHandIndexEnd
                          {
                            OFFSET -2.770001 3e-06 8e-06
                            CHANNELS 3 Zrotation Yrotation Xrotation
                          }
                        }
                      }
                    }
                  }
                  JOINT RightHandMiddle1
                  {
                    OFFSET -3.168223 -0.944764 0.411762
                    CHANNELS 3 Zrotation Yrotation Xrotation
                    JOINT RightHandMiddle2
                    {
                      OFFSET -6.266691 -1e-06 -4e-06
                      CHANNELS 3 Zrotation Yrotation Xrotation
                      JOINT RightHandMiddle3
                      {
                        OFFSET -4.348901 0.0 0.0
                        CHANNELS 3 Zrotation Yrotation Xrotation
                        JOINT RightHandMiddle4
                        {
                          OFFSET -3.00024 2e-06 -4e-06
                          CHANNELS 3 Zrotation Yrotation Xrotation
                          JOINT RightHandMiddleEnd
                          {
                            OFFSET -2.321477 -4e-06 -4e-06
                            CHANNELS 3 Zrotation Yrotation Xrotation
                          }
                        }
                      }
                    }
                  }
                  JOINT RightHandRing1
                  {
                    OFFSET -2.885654 0.293261 -0.119232
                    CHANNELS 3 Zrotation Yrotation Xrotation
                    JOINT RightHandRing2
                    {
                      OFFSET -6.032835 -1e-06 -4e-06
                      CHANNELS 3 Zrotation Yrotation Xrotation
                      JOINT RightHandRing3
                      {
                        OFFSET -4.33881 0.0 -4e-06
                        CHANNELS 3 Zrotation Yrotation Xrotation
                        JOINT RightHandRing4
                        {
                          OFFSET -2.654903 -4e-06 -4e-06
                          CHANNELS 3 Zrotation Yrotation Xrotation
                          JOINT RightHandRingEnd
                          {
                            OFFSET -1.935122 0.0 4e-06
                            CHANNELS 3 Zrotation Yrotation Xrotation
                          }
                        }
                      }
                    }
                  }
                  JOINT RightHandPinky1
                  {
                    OFFSET -2.866241 1.503904 -0.60527
                    CHANNELS 3 Zrotation Yrotation Xrotation
                    JOINT RightHandPinky2
                    {
                      OFFSET -5.553177 -2e-06 0.0
                      CHANNELS 3 Zrotation Yrotation Xrotation
                      JOINT RightHandPinky3
                      {
                        OFFSET -3.062664 -1e-06 -4e-06
                        CHANNELS 3 Zrotation Yrotation Xrotation
                        JOINT RightHandPinky4
                        {
                          OFFSET -1.546529 2e-06 4e-06
                          CHANNELS 3 Zrotation Yrotation Xrotation
                          JOINT RightHandPinkyEnd
                          {
                            OFFSET -1.952341 0.0 -4e-06
                            CHANNELS 3 Zrotation Yrotation Xrotation
                          }
                        }
                      }
                    }
                  }
                }
              }
            }
          }
        }
      }
    }
    JOINT LeftLeg
    {
      OFFSET -8.443107 2.567604 10.043214
      CHANNELS 3 Zrotation Yrotation Xrotation
      JOINT LeftShin
      {
        OFFSET 43.229198 1e-06 -1e-06
        CHANNELS 3 Zrotation Yrotation Xrotation
        JOINT LeftFoot
        {
          OFFSET 42.298611 1e-06 1e-06
          CHANNELS 3 Zrotation Yrotation Xrotation
          JOINT LeftToeBase
          {
            OFFSET 14.165858 1e-06 0.0
            CHANNELS 3 Zrotation Yrotation Xrotation
            JOINT LeftToeEnd
            {
              OFFSET 6.7141 -0.234461 0.0
              CHANNELS 3 Zrotation Yrotation Xrotation
            }
          }
        }
      }
    }
    JOINT RightLeg
    {
      OFFSET -8.303923 2.592729 -10.047278
      CHANNELS 3 Zrotation Yrotation Xrotation
      JOINT RightShin
      {
        OFFSET -43.369682 0.0 1e-06
        CHANNELS 3 Zrotation Yrotation Xrotation
        JOINT RightFoot
        {
          OFFSET -42.260784 4e-06 2e-06
          CHANNELS 3 Zrotation Yrotation Xrotation
          JOINT RightToeBase
          {
            OFFSET -14.222245 -2e-06 -1e-06
            CHANNELS 3 Zrotation Yrotation Xrotation
            JOINT RightToeEnd
            {
              OFFSET -6.660062 0.232574 -2e-06
              CHANNELS 3 Zrotation Yrotation Xrotation
            }
          }
        }
      }
    }
  }
}
MOTION
Frames: 4
Frame Time: 0.03333333333333333
0.0 0.0 0.0 0.0 -0.0 0.0 1.188119 7.659829 114.677132 -23.006771 -86.722847 -150.87178 -4.747843 -0.684593 -0.761503 -12.796867 0.127908 -0.466083 15.502476 1.16895 -1.256107 35.208767 -1.916528 -1.144673 -2.278979 0.647286 -0.820227 -22.354172 2.454679 -1.107814 5e-06 0.0 -0.0 -0.257435 0.0743 0.026485 -0.284724 0.082889 0.052363 -0.319095 0.081979 0.009662 -24.6157 -75.571548 33.265446 24.382189 -49.851181 -58.423908 157.804474 1.541975 -0.130215 -7.755047 20.542837 32.962341 17.636633 -26.322741 52.411209 -19.466665 -14.395602 29.410395 -0.0 -8.774823 -2e-06 15.408801 -17.931644 6.246364 -0.609777 -1.795654 -3.889327 -4.80709 -11.046811 -2.93785 4e-06 -20.976017 1e-06 -5.019969 -25.03356 -4.031881 5e-06 1e-06 -0.0 -10.634536 -5.686972 -3.565588 10.573276 -17.922951 -3.113899 3e-06 -13.821211 1e-06 -0.501779 -31.181511 -4.027015 -11.147586 -58.519409 7.204901 -13.982716 -7.150199 -2.875041 13.77273 -8.40149 -3.218241 0.347733 -34.211555 0.771656 -0.963031 -17.733372 2.62102 -1e-06 0.0 -0.0 -17.34642 -20.095221 -4.201783 21.757561 -1.638373 3.866428 0.0 -6.338823 2e-06 -1.697589 -22.591743 -6.194006 1e-06 -4e-06 -3e-06 129.047775 -72.179207 67.619003 21.570328 -56.818222 -51.7332 157.314087 0.253619 -0.171628 -7.981838 38.05302 46.630253 22.18211 -20.375893 49.933327 -16.701813 -16.743528 28.476534 -2e-06 -12.690601 -1e-06 17.088655 -17.677725 2.275957 -0.105919 -1.513857 -4.275882 -5.03904 -5.612872 -2.953557 4e-06 -11.020523 -3e-06 -6.111297 -15.89533 -3.840472 -0.0 -1e-06 0.0 -10.283371 -5.680289 -4.341839 11.028294 -11.302405 -2.372634 -1.384269 -14.238583 -6.320123 -0.625438 -26.924191 -3.827603 -4.278592 -50.695496 -4.294497 -13.708524 -7.363477 -3.720941 18.14115 -14.052739 -3.242677 6e-06 -18.78727 -3e-06 -0.429712 -8.456045 2.555503 0.0 3e-06 -0.0 -15.923536 -20.094486 -5.473587 30.419218 -7.190824 1.735925 2e-06 -8.162925 -1e-06 -1.861901 -22.861473 -6.167945 -0.0 -3e-06 -1e-06 167.796234 -22.176031 -82.085579 22.62805 -30.749119 56.391441 -104.831818 25.695818 1.188337 -21.54954 1.749673 1.653939 -0.999998 0.0 0.0 2.938631 -7.790764 162.74559 -8.416491 4.038248 -162.329895 -83.233467 -1.296365 -5.208504 -22.879618 0.640622 1.419619 -1.000001 0.0 0.0 
0.0 0.0 0.0 0.0 -0.0 0.0 1.177896 7.650643 114.667343 -22.924536 -86.712944 -150.962723 -4.726899 -0.667477 -0.784728 -12.808321 0.122875 -0.486073 15.486738 1.200297 -1.249182 35.221905 -1.842821 -1.119131 -2.272478 0.629199 -0.89445 -22.509172 2.459231 -1.064428 5e-06 0.0 0.0 -0.260383 0.052919 0.023805 -0.289148 0.047528 0.054641 -0.328044 0.075178 0.001888 -24.384794 -75.495407 33.064899 24.318201 -49.892212 -58.407696 157.862335 1.590979 -0.138292 -7.669816 20.618176 33.288094 17.636633 -26.322735 52.41119 -19.466667 -14.3956 29.410393 -1e-06 -8.774822 -2e-06 15.386237 -17.927248 6.257358 -0.609776 -1.795654 -3.889328 -4.807089 -11.046813 -2.93785 5e-06 -20.976025 0.0 -5.019969 -25.033566 -4.031881 5e-06 -1e-06 -0.0 -10.634534 -5.686971 -3.565587 10.573277 -17.922953 -3.113901 2e-06 -13.821212 1e-06 -0.501776 -31.181511 -4.027017 -11.122038 -58.524784 7.179808 -13.982715 -7.150199 -2.87504 13.772731 -8.401495 -3.218243 0.347735 -34.211571 0.771654 -0.963028 -17.733376 2.621019 -2e-06 0.0 -0.0 -17.346418 -20.095221 -4.201779 21.757561 -1.638378 3.866426 0.0 -6.338824 2e-06 -1.697589 -22.591753 -6.194007 -1e-06 -4e-06 -2e-06 129.398758 -72.039902 67.344246 21.912802 -56.823959 -52.127419 157.319519 0.254208 -0.145712 -8.242282 38.002171 46.653824 22.182121 -20.3759 49.933323 -16.701826 -16.743538 28.476543 -4e-06 -12.690607 0.0 17.173332 -17.680882 2.245591 -0.105919 -1.513857 -4.275883 -5.039042 -5.612875 -2.953557 5e-06 -11.020531 -2e-06 -6.1113 -15.895341 -3.840472 -1e-06 -2e-06 -0.0 -10.283374 -5.68029 -4.341839 11.028299 -11.302412 -2.372634 -1.384268 -14.238589 -6.320123 -0.625437 -26.924206 -3.8276 -4.255417 -50.783203 -4.322235 -13.708529 -7.363479 -3.720939 18.141163 -14.052751 -3.242678 8e-06 -18.787279 -3e-06 -0.429711 -8.45605 2.555504 0.0 3e-06 0.0 -15.923541 -20.094496 -5.473585 30.419224 -7.190831 1.735924 3e-06 -8.162931 -2e-06 -1.861901 -22.861488 -6.167945 -0.0 -3e-06 -1e-06 167.77536 -22.171646 -82.217361 22.512079 -30.869587 56.699097 -104.858421 25.588791 1.293591 -21.714468 1.741554 1.64315 -0.999998 -0.0 0.0 2.900563 -7.810019 162.647919 -8.508055 4.012919 -162.173859 -83.262398 -1.390332 -5.259967 -22.792452 0.647352 1.415733 -1.000001 0.0 -0.0 
0.0 0.0 0.0 0.0 -0.0 0.0 1.145725 7.6401 114.65789 -22.753868 -86.7127 -151.125656 -4.722238 -0.645126 -0.800493 -12.818471 0.106185 -0.513541 15.490664 1.207096 -1.233121 35.233398 -1.751931 -1.091618 -2.26805 0.613341 -0.970512 -22.649334 2.453132 -1.072842 5e-06 -0.0 -0.0 -0.262865 0.037406 0.022286 -0.2946 0.023508 0.056533 -0.337988 0.069149 -0.002966 -24.173706 -75.402863 32.842495 24.303699 -49.902256 -58.314907 157.889008 1.617463 -0.118356 -7.567542 20.67832 33.595623 17.636621 -26.322721 52.411182 -19.466658 -14.395594 29.410385 -1e-06 -8.774817 -2e-06 15.372239 -17.916727 6.243437 -0.609776 -1.795654 -3.889327 -4.807086 -11.046806 -2.93785 6e-06 -20.976011 -1e-06 -5.019966 -25.033552 -4.031879 5e-06 -0.0 0.0 -10.634529 -5.686967 -3.565587 10.573271 -17.922945 -3.1139 4e-06 -13.821205 0.0 -0.501774 -31.181498 -4.027016 -11.101153 -58.504585 7.148931 -13.982705 -7.150195 -2.875042 13.772724 -8.401489 -3.218242 0.347737 -34.211536 0.771651 -0.963026 -17.733362 2.621018 -1e-06 0.0 0.0 -17.346409 -20.095209 -4.201782 21.757551 -1.638377 3.866425 2e-06 -6.338821 2e-06 -1.697588 -22.591738 -6.194005 1e-06 -4e-06 -3e-06 129.618973 -71.916206 67.213882 22.250147 -56.822445 -52.461544 157.270004 0.26585 -0.120118 -8.369244 37.963375 46.738831 22.182117 -20.375898 49.933327 -16.701811 -16.74353 28.476534 -1e-06 -12.690601 -1e-06 17.271914 -17.690948 2.234226 -0.105919 -1.513856 -4.275882 -5.039042 -5.612873 -2.953557 3e-06 -11.020525 -1e-06 -6.111299 -15.895336 -3.840472 -0.0 -1e-06 0.0 -10.283371 -5.68029 -4.341839 11.028296 -11.302406 -2.372633 -1.38427 -14.238583 -6.320122 -0.62544 -26.924191 -3.827603 -4.267803 -50.895554 -4.31295 -13.708527 -7.363478 -3.720939 18.14115 -14.052739 -3.242673 5e-06 -18.78727 -2e-06 -0.429713 -8.456044 2.555504 0.0 2e-06 0.0 -15.923539 -20.094486 -5.473586 30.419218 -7.190823 1.735926 3e-06 -8.162927 -1e-06 -1.861904 -22.861479 -6.167943 -0.0 -4e-06 -1e-06 167.756607 -22.193279 -82.247635 22.483805 -30.916012 56.844784 -104.734955 25.492683 1.402392 -21.732742 1.733074 1.645558 -0.999997 0.0 0.0 2.858325 -7.773885 162.517471 -8.624387 4.022315 -161.997696 -83.348679 -1.492004 -5.253665 -22.658768 0.653107 1.416933 -1.000001 0.0 -0.0 
0.0 0.0 0.0 0.0 -0.0 0.0 1.091893 7.612175 114.63913 -22.349089 -86.732056 -151.505081 -4.719155 -0.638916 -0.812145 -12.828368 0.091467 -0.545496 15.513434 1.187816 -1.222989 35.250755 -1.640908 -1.055992 -2.26725 0.591097 -1.022231 -22.756823 2.3997 -1.12592 6e-06 0.0 -0.0 -0.263279 0.02847 0.021953 -0.295489 0.012938 0.056445 -0.346343 0.063027 -0.003701 -23.946198 -75.317223 32.546062 24.300655 -49.862293 -58.176247 157.871399 1.637082 -0.086418 -7.480645 20.730019 33.759068 17.636637 -26.322742 52.411201 -19.466665 -14.3956 29.410395 -1e-06 -8.774822 -2e-06 15.365195 -17.90045 6.204142 -0.609778 -1.795654 -3.889328 -4.80709 -11.046813 -2.937851 4e-06 -20.976025 0.0 -5.019972 -25.033562 -4.031881 5e-06 -1e-06 -0.0 -10.634536 -5.686971 -3.565587 10.573277 -17.922956 -3.113902 3e-06 -13.821213 2e-06 -0.501778 -31.181522 -4.027015 -11.07654 -58.453564 7.100069 -13.982716 -7.150198 -2.875041 13.772731 -8.401495 -3.218241 0.347734 -34.211559 0.771657 -0.96303 -17.733376 2.621022 -2e-06 -1e-06 0.0 -17.346422 -20.095221 -4.201782 21.757563 -1.638375 3.866429 0.0 -6.338825 2e-06 -1.697589 -22.591757 -6.194008 0.0 -2e-06 -2e-06 129.651413 -71.805031 67.25853 22.564831 -56.810951 -52.625149 157.168839 0.278794 -0.096141 -8.316761 37.986248 46.853443 22.182114 -20.375904 49.933327 -16.701815 -16.743528 28.476536 -2e-06 -12.690601 -1e-06 17.345171 -17.689266 2.238791 -0.105919 -1.513857 -4.275882 -5.03904 -5.612872 -2.953557 4e-06 -11.020527 -1e-06 -6.111298 -15.895338 -3.840471 1e-06 -2e-06 0.0 -10.283371 -5.680289 -4.34184 11.028296 -11.302409 -2.372632 -1.384268 -14.238585 -6.320122 -0.625439 -26.924198 -3.827601 -4.297078 -51.015179 -4.268003 -13.708524 -7.363476 -3.720941 18.141148 -14.052744 -3.242675 6e-06 -18.787271 -1e-06 -0.429712 -8.456045 2.555504 0.0 3e-06 0.0 -15.923532 -20.09449 -5.473587 30.419214 -7.190827 1.735926 3e-06 -8.16293 -1e-06 -1.861902 -22.861479 -6.167942 -0.0 -4e-06 -1e-06 167.758881 -22.232964 -82.235443 22.504522 -30.940388 56.885601 -104.555679 25.444155 1.427316 -21.595652 1.726571 1.652002 -0.999997 0.0 0.0 2.757771 -7.769305 162.262085 -8.868233 4.128429 -161.650925 -83.24028 -1.53601 -5.261207 -22.496077 0.654594 1.418959 -1.000001 0.0 -0.0 
